<svg width="24" height="24" viewBox="0 0 24 24" fill="none" xmlns="http://www.w3.org/2000/svg">
<path d="M6 19C8.20914 19 10 17.2091 10 15C10 12.7909 8.20914 11 6 11C3.79086 11 2 12.7909 2 15C2 17.2091 3.79086 19 6 19Z" stroke="black" stroke-width="2" stroke-linecap="round" stroke-linejoin="round"/>
<path d="M18 19C20.2091 19 22 17.2091 22 15C22 12.7909 20.2091 11 18 11C15.7909 11 14 12.7909 14 15C14 17.2091 15.7909 19 18 19Z" stroke="black" stroke-width="2" stroke-linecap="round" stroke-linejoin="round"/>
<path d="M6 15L8 8H15.5" stroke="black" stroke-width="2" stroke-linecap="round" stroke-linejoin="round"/>
<path d="M6 5H9" stroke="black" stroke-width="2" stroke-linecap="round" stroke-linejoin="round"/>
<path d="M18 15L15 5H19" stroke="black" stroke-width="2" stroke-linecap="round" stroke-linejoin="round"/>
<path d="M19 5H19.5C20.3284 5 21 5.67157 21 6.5C21 7.32843 20.3284 8 19.5 8H19" stroke="black" stroke-width="2" stroke-linecap="round" stroke-linejoin="round"/>
</svg>
