<svg width="24" height="24" viewBox="0 0 24 24" fill="none" xmlns="http://www.w3.org/2000/svg">
<path d="M19 7H5C3.89543 7 3 7.89543 3 9V17C3 18.1046 3.89543 19 5 19H19C20.1046 19 21 18.1046 21 17V9C21 7.89543 20.1046 7 19 7Z" stroke="black" stroke-width="2" stroke-linecap="round" stroke-linejoin="round"/>
<path d="M9 6C9 4.89543 9.89543 4 11 4H13C14.1046 4 15 4.89543 15 6V7H9V6Z" stroke="black" stroke-width="2" stroke-linecap="round" stroke-linejoin="round"/>
<path d="M10 12L10.2111 12.1056C11.3373 12.6686 12.6627 12.6686 13.7889 12.1056L14 12" stroke="black" stroke-width="2" stroke-linecap="round" stroke-linejoin="round"/>
</svg>
