<svg width="24" height="24" viewBox="0 0 24 24" fill="none" xmlns="http://www.w3.org/2000/svg">
<path d="M12 2C8.68629 2 6 4.68629 6 8C6 9.41892 6.30157 10.3478 7.125 11.375L12 17L16.875 11.375C17.6984 10.3478 18 9.41892 18 8C18 4.68629 15.3137 2 12 2Z" stroke="black" stroke-width="2" stroke-linecap="round" stroke-linejoin="round"/>
<path d="M5 15.1434C3.14864 15.8694 2 16.881 2 18C2 20.2091 6.47715 22 12 22C17.5228 22 22 20.2091 22 18C22 16.881 20.8514 15.8694 19 15.1434" stroke="black" stroke-width="2" stroke-linecap="round" stroke-linejoin="round"/>
<path d="M12 9C12.5523 9 13 8.55228 13 8C13 7.44772 12.5523 7 12 7C11.4477 7 11 7.44772 11 8C11 8.55228 11.4477 9 12 9Z" stroke="black" stroke-width="2" stroke-linecap="round" stroke-linejoin="round"/>
</svg>
