<svg width="24" height="24" viewBox="0 0 24 24" fill="none" xmlns="http://www.w3.org/2000/svg">
<path d="M20 4H4C2.89543 4 2 4.89543 2 6V18C2 19.1046 2.89543 20 4 20H20C21.1046 20 22 19.1046 22 18V6C22 4.89543 21.1046 4 20 4Z" stroke="black" stroke-width="2" stroke-linecap="round" stroke-linejoin="round"/>
<path d="M12 10.0156C11.4765 9.39282 10.7105 9 9.85714 9C8.27919 9 7 10.3431 7 12C7 13.6569 8.27919 15 9.85714 15C10.7105 15 11.4765 14.6072 12 13.9844M17 12C17 13.6569 15.7208 15 14.1429 15C12.5649 15 11.2857 13.6569 11.2857 12C11.2857 10.3431 12.5649 9 14.1429 9C15.7208 9 17 10.3431 17 12Z" stroke="black" stroke-width="2" stroke-linecap="round" stroke-linejoin="round"/>
</svg>
