<svg width="24" height="24" viewBox="0 0 24 24" fill="none" xmlns="http://www.w3.org/2000/svg">
<path d="M19 3H5C3.89543 3 3 3.89543 3 5V19C3 20.1046 3.89543 21 5 21H19C20.1046 21 21 20.1046 21 19V5C21 3.89543 20.1046 3 19 3Z" stroke="black" stroke-width="2" stroke-linecap="round" stroke-linejoin="round"/>
<path d="M8 8H8.5" stroke="black" stroke-width="2" stroke-linecap="round"/>
<path d="M8.25 7.75V8.25" stroke="black" stroke-width="2" stroke-linecap="round"/>
<path d="M8.25 11.75V12.25" stroke="black" stroke-width="2" stroke-linecap="round"/>
<path d="M8.25 15.75V16.25" stroke="black" stroke-width="2" stroke-linecap="round"/>
<path d="M15.5 8H16" stroke="black" stroke-width="2" stroke-linecap="round"/>
<path d="M15.75 7.75V8.25" stroke="black" stroke-width="2" stroke-linecap="round"/>
<path d="M15.75 11.75V12.25" stroke="black" stroke-width="2" stroke-linecap="round"/>
<path d="M15.75 15.75V16.25" stroke="black" stroke-width="2" stroke-linecap="round"/>
<path d="M8 12H8.5" stroke="black" stroke-width="2" stroke-linecap="round"/>
<path d="M15.5 12H16" stroke="black" stroke-width="2" stroke-linecap="round"/>
<path d="M8 16H8.5" stroke="black" stroke-width="2" stroke-linecap="round"/>
<path d="M15.5 16H16" stroke="black" stroke-width="2" stroke-linecap="round"/>
</svg>
