<svg width="24" height="24" viewBox="0 0 24 24" fill="none" xmlns="http://www.w3.org/2000/svg">
<path d="M21.2572 10.9622C21.7314 11.5813 21.7314 12.4187 21.2572 13.0378C19.764 14.9868 16.1818 19 12 19C7.81824 19 4.23599 14.9868 2.74285 13.0378C2.26858 12.4187 2.26857 11.5813 2.74284 10.9622C4.23599 9.01321 7.81824 5 12 5C16.1818 5 19.764 9.01321 21.2572 10.9622Z" stroke="black" stroke-width="2" stroke-linecap="round" stroke-linejoin="round"/>
<path d="M12 15C13.6569 15 15 13.6569 15 12C15 10.3431 13.6569 9 12 9C10.3431 9 9 10.3431 9 12C9 13.6569 10.3431 15 12 15Z" stroke="black" stroke-width="2" stroke-linecap="round" stroke-linejoin="round"/>
</svg>
