<svg width="24" height="24" viewBox="0 0 24 24" fill="none" xmlns="http://www.w3.org/2000/svg">
<path d="M12 7C16.9706 7 21 6.10457 21 5C21 3.89543 16.9706 3 12 3C7.02944 3 3 3.89543 3 5C3 6.10457 7.02944 7 12 7Z" stroke="black" stroke-width="2" stroke-linecap="round" stroke-linejoin="round"/>
<path d="M3 5C3 7.23094 6.87106 11.6739 8.85579 13.8052C9.57875 14.5816 10 15.596 10 16.6569V19C10 20.1046 10.8954 21 12 21C13.1046 21 14 20.1046 14 19V16.6569C14 15.596 14.4212 14.5816 15.1442 13.8052C17.1289 11.6739 21 7.23094 21 5" stroke="black" stroke-width="2" stroke-linecap="round" stroke-linejoin="round"/>
</svg>
