<svg width="24" height="24" viewBox="0 0 24 24" fill="none" xmlns="http://www.w3.org/2000/svg">
<path d="M5 4V5C5 6.6356 7 9 7.99951 10L8.75075 19.0104C8.89163 20.7003 10.3043 22 11.9999 22C13.6957 22 15.1083 20.7002 15.2491 19.0103L16 10C17 9 19 6.63574 19 5V4" stroke="black" stroke-width="2" stroke-linecap="round" stroke-linejoin="round"/>
<path d="M12 11V13" stroke="black" stroke-width="2" stroke-linecap="round" stroke-linejoin="round"/>
<path d="M12 6C15.866 6 19 5.10457 19 4C19 2.89543 15.866 2 12 2C8.13401 2 5 2.89543 5 4C5 5.10457 8.13401 6 12 6Z" stroke="black" stroke-width="2" stroke-linecap="round" stroke-linejoin="round"/>
</svg>
