<svg width="24" height="24" viewBox="0 0 24 24" fill="none" xmlns="http://www.w3.org/2000/svg">
<path d="M6 18C8.20914 18 10 16.2091 10 14C10 11.7909 8.20914 10 6 10C3.79086 10 2 11.7909 2 14C2 16.2091 3.79086 18 6 18Z" stroke="black" stroke-width="2" stroke-linecap="round" stroke-linejoin="round"/>
<path d="M18 18C20.2091 18 22 16.2091 22 14C22 11.7909 20.2091 10 18 10C15.7909 10 14 11.7909 14 14C14 16.2091 15.7909 18 18 18Z" stroke="black" stroke-width="2" stroke-linecap="round" stroke-linejoin="round"/>
<path d="M10 14L10.2111 13.8944C11.3373 13.3314 12.6627 13.3314 13.7889 13.8944L14 14" stroke="black" stroke-width="2" stroke-linecap="round" stroke-linejoin="round"/>
<path d="M19 6L21.8383 12.6227C21.945 12.8716 22 13.1397 22 13.4105V14" stroke="black" stroke-width="2" stroke-linecap="round" stroke-linejoin="round"/>
<path d="M5 6L2.16171 12.6227C2.05502 12.8716 2 13.1397 2 13.4105V14" stroke="black" stroke-width="2" stroke-linecap="round" stroke-linejoin="round"/>
</svg>
