<svg width="24" height="24" viewBox="0 0 24 24" fill="none" xmlns="http://www.w3.org/2000/svg">
<g clip-path="url(#clip0_1_1912)">
<mask id="mask0_1_1912" style="mask-type:luminance" maskUnits="userSpaceOnUse" x="0" y="0" width="24" height="24">
<path d="M24 0H0V24H24V0Z" fill="white"/>
</mask>
<g mask="url(#mask0_1_1912)">
<path d="M5.08057 0H6.1623V1.06875H7.15183V0H8.23361V3.23644H7.15188V2.15269H6.16235V3.23644H5.08061L5.08057 0Z" fill="black"/>
<path d="M9.65621 1.07325H8.70389V0H11.6908V1.07325H10.738V3.23644H9.65625L9.65621 1.07325Z" fill="black"/>
<path d="M12.1648 0H13.2928L13.9866 1.13719L14.6797 0H15.8081V3.23644H14.7308V1.63228L13.9866 2.78302H13.968L13.2232 1.63228V3.23644H12.1648V0Z" fill="black"/>
<path d="M16.3465 0H17.4286V2.16666H18.9498V3.23644H16.3465V0Z" fill="black"/>
<path fill-rule="evenodd" clip-rule="evenodd" d="M5.04593 22.0724L3 4.71658H21L18.9527 22.0697L11.9897 24L5.04593 22.0724ZM9.18344 12.5727L8.98891 10.3929H17.1343L17.3249 8.26428H6.6626L7.23672 14.7013H14.6138L14.3668 17.4619L11.9927 18.1027L11.991 18.1034L9.62038 17.4633L9.46883 15.7656H7.33203L7.63025 19.1079L11.9906 20.3183L16.3565 19.1078L16.8887 13.1443L16.9406 12.5727H9.18344Z" fill="black"/>
</g>
</g>
<defs>
<clipPath id="clip0_1_1912">
<rect width="24" height="24" fill="white"/>
</clipPath>
</defs>
</svg>
