<svg width="24" height="24" viewBox="0 0 24 24" fill="none" xmlns="http://www.w3.org/2000/svg">
<path d="M11.2346 2.31704C11.7247 2.11405 12.2753 2.11405 12.7654 2.31704L18.3057 4.61192C18.7958 4.8149 19.1851 5.20425 19.3881 5.69431L21.683 11.2346C21.886 11.7247 21.886 12.2753 21.683 12.7654L19.3881 18.3057C19.1851 18.7958 18.7958 19.1851 18.3057 19.3881L12.7654 21.683C12.2753 21.886 11.7247 21.886 11.2346 21.683L5.69431 19.3881C5.20425 19.1851 4.8149 18.7958 4.61192 18.3057L2.31704 12.7654C2.11405 12.2753 2.11405 11.7247 2.31704 11.2346L4.61192 5.69431C4.8149 5.20425 5.20425 4.8149 5.69431 4.61192L11.2346 2.31704Z" stroke="black" stroke-width="2"/>
</svg>
