<svg width="24" height="24" viewBox="0 0 24 24" fill="none" xmlns="http://www.w3.org/2000/svg">
<path d="M11.2346 1.31704C11.7247 1.11405 12.2753 1.11405 12.7654 1.31704L19.0128 3.90481C19.5029 4.1078 19.8922 4.49715 20.0952 4.9872L22.683 11.2346C22.886 11.7247 22.886 12.2753 22.683 12.7654L20.0952 19.0128C19.8922 19.5029 19.5029 19.8922 19.0128 20.0952L12.7654 22.683C12.2753 22.886 11.7247 22.886 11.2346 22.683L4.9872 20.0952C4.49715 19.8922 4.1078 19.5029 3.90481 19.0128L1.31704 12.7654C1.11405 12.2753 1.11405 11.7247 1.31704 11.2346L3.90481 4.9872C4.1078 4.49715 4.49715 4.1078 4.9872 3.90481L11.2346 1.31704Z" fill="black"/>
</svg>
