<svg width="24" height="24" viewBox="0 0 24 24" fill="none" xmlns="http://www.w3.org/2000/svg">
<path d="M7 8C8.65685 8 10 6.65685 10 5C10 3.34315 8.65685 2 7 2C5.34315 2 4 3.34315 4 5C4 6.65685 5.34315 8 7 8Z" stroke="black" stroke-width="2"/>
<path d="M9.99999 12H6.99999H5.89834C4.38537 12 3.10916 13.1266 2.9215 14.6279L2.281 19.7519C2.13179 20.9456 3.06256 22 4.26555 22H8.99999" stroke="black" stroke-width="2" stroke-linecap="round" stroke-linejoin="round"/>
<path d="M21.719 19.7519L21.0785 14.6279C20.8908 13.1266 19.6146 12 18.1017 12H17H15.8983C14.3854 12 13.1092 13.1266 12.9215 14.6279L12.281 19.7519C12.1318 20.9456 13.0626 22 14.2656 22H19.7344C20.9374 22 21.8682 20.9456 21.719 19.7519Z" stroke="black" stroke-width="2" stroke-linecap="round" stroke-linejoin="round"/>
<path d="M17 8C18.6569 8 20 6.65685 20 5C20 3.34315 18.6569 2 17 2C15.3431 2 14 3.34315 14 5C14 6.65685 15.3431 8 17 8Z" stroke="black" stroke-width="2"/>
</svg>
