<svg width="24" height="24" viewBox="0 0 24 24" fill="none" xmlns="http://www.w3.org/2000/svg">
<path d="M16.719 19.7519L16.0785 14.6279C15.8908 13.1266 14.6146 12 13.1017 12H12H10.8983C9.38537 12 8.10916 13.1266 7.9215 14.6279L7.281 19.7519C7.13179 20.9456 8.06256 22 9.26555 22H12H14.7344C15.9374 22 16.8682 20.9456 16.719 19.7519Z" stroke="black" stroke-width="2" stroke-linecap="round" stroke-linejoin="round"/>
<path d="M12 8C13.6569 8 15 6.65685 15 5C15 3.34315 13.6569 2 12 2C10.3431 2 9 3.34315 9 5C9 6.65685 10.3431 8 12 8Z" stroke="black" stroke-width="2"/>
<path d="M4 11C5.10457 11 6 10.1046 6 9C6 7.89543 5.10457 7 4 7C2.89543 7 2 7.89543 2 9C2 10.1046 2.89543 11 4 11Z" stroke="black" stroke-width="2"/>
<path d="M20 11C21.1046 11 22 10.1046 22 9C22 7.89543 21.1046 7 20 7C18.8954 7 18 7.89543 18 9C18 10.1046 18.8954 11 20 11Z" stroke="black" stroke-width="2"/>
<path d="M3.99999 14H3.69424C2.71657 14 1.88219 14.7068 1.72146 15.6712L1.38812 17.6712C1.18495 18.8903 2.12503 20 3.36091 20H6.99999" stroke="black" stroke-width="2" stroke-linecap="round" stroke-linejoin="round"/>
<path d="M20 14H20.3057C21.2834 14 22.1178 14.7068 22.2785 15.6712L22.6119 17.6712C22.815 18.8903 21.8751 20 20.6392 20C19.4775 20 18.0952 20 17 20" stroke="black" stroke-width="2" stroke-linecap="round" stroke-linejoin="round"/>
</svg>
