<svg width="24" height="24" viewBox="0 0 24 24" fill="none" xmlns="http://www.w3.org/2000/svg">
<path d="M7 21L13 13L21 21" stroke="black" stroke-width="2" stroke-linecap="round" stroke-linejoin="round"/>
<path d="M5.22772 7.30333L18.7602 2.24397C19.1523 2.09737 19.5942 2.21053 19.8676 2.52755L20.0582 2.74846C21.3109 4.20096 22 6.0552 22 7.97327V8.58945C22 9.00666 21.741 9.38002 21.3502 9.52613L7.81421 14.5868L5.22772 7.30333Z" stroke="black" stroke-width="2" stroke-linecap="round" stroke-linejoin="round"/>
<path d="M2.65966 11.371C2.29401 10.339 2.82602 9.20492 3.8533 8.82638L5.54717 8.20221L7.49094 13.6745L5.8515 14.2874C4.80423 14.679 3.63937 14.1359 3.26595 13.082L2.65966 11.371Z" stroke="black" stroke-width="2" stroke-linecap="round" stroke-linejoin="round"/>
<path d="M13 13V22" stroke="black" stroke-width="2" stroke-linecap="round" stroke-linejoin="round"/>
</svg>
