<svg width="24" height="24" viewBox="0 0 24 24" fill="none" xmlns="http://www.w3.org/2000/svg">
<path d="M10 17H16V6C16 4.89543 15.1046 4 14 4H4C2.89543 4 2 4.89543 2 6V16C2 16.5523 2.44772 17 3 17H4" stroke="black" stroke-width="2" stroke-linecap="round" stroke-linejoin="round"/>
<path d="M22 16V12C22 9.79086 20.2091 8 18 8H16V17H21C21.5523 17 22 16.5523 22 16Z" stroke="black" stroke-width="2" stroke-linecap="round" stroke-linejoin="round"/>
<path d="M15 17C15 18.6569 16.3431 20 18 20C19.6569 20 21 18.6569 21 17H15Z" stroke="black" stroke-width="2" stroke-linecap="round" stroke-linejoin="round"/>
<path d="M22 14H20" stroke="black" stroke-width="2" stroke-linecap="round" stroke-linejoin="round"/>
<path d="M7 20C8.65685 20 10 18.6569 10 17C10 15.3431 8.65685 14 7 14C5.34315 14 4 15.3431 4 17C4 18.6569 5.34315 20 7 20Z" stroke="black" stroke-width="2" stroke-linecap="round" stroke-linejoin="round"/>
</svg>
