<svg width="24" height="24" viewBox="0 0 24 24" fill="none" xmlns="http://www.w3.org/2000/svg">
<g clip-path="url(#clip0_1_2133)">
<mask id="mask0_1_2133" style="mask-type:luminance" maskUnits="userSpaceOnUse" x="0" y="0" width="24" height="24">
<path d="M24 0H0V24H24V0Z" fill="white"/>
</mask>
<g mask="url(#mask0_1_2133)">
<path fill-rule="evenodd" clip-rule="evenodd" d="M24 12C24 18.6274 18.6274 24 12 24C5.37258 24 0 18.6274 0 12C0 5.37258 5.37258 0 12 0C18.6274 0 24 5.37258 24 12ZM6 16.2H15V9.6C15 8.6058 14.1942 7.8 13.2 7.8H4.2V14.4C4.2 15.3942 5.0058 16.2 6 16.2ZM16.2 13.8L19.8 16.2V7.8L16.2 10.2V13.8Z" fill="black"/>
</g>
</g>
<defs>
<clipPath id="clip0_1_2133">
<rect width="24" height="24" fill="white"/>
</clipPath>
</defs>
</svg>
